<?xml version="1.0" encoding="utf-8"?>
<svg version="1.1" xmlns:xlink="http://www.w3.org/1999/xlink" width="33px" height="23px" xmlns="http://www.w3.org/2000/svg">
  <g transform="matrix(1 0 0 1 -716 -1078 )">
    <path d="M 13.0969899665552 6.5531746031746  L 13.0969899665552 15.7349206349206  L 22 11.1714285714286  L 13.0969899665552 6.5531746031746  Z M 4.96655518394649 0.328571428571427  C 8.04459308807135 0.109523809523809  11.8890746934225 0  16.5 0  C 18.5602006688963 0  20.5498885172798 0.0273809523809523  22.4690635451505 0.0821428571428569  C 24.3882385730212 0.136904761904761  25.7954292084727 0.194708994708993  26.690635451505 0.255555555555555  L 28.0334448160535 0.328571428571427  C 28.0457079152731 0.328571428571427  28.1499442586399 0.337698412698412  28.3461538461538 0.35595238095238  C 28.5423634336678 0.37420634920635  28.6833890746934 0.392460317460319  28.7692307692308 0.410714285714287  C 28.8550724637681 0.428968253968255  28.9991638795987 0.456349206349207  29.2015050167224 0.492857142857144  C 29.4038461538462 0.52936507936508  29.5785953177258 0.578042328042325  29.7257525083612 0.638888888888889  C 29.8729096989967 0.699735449735448  30.0445930880714 0.778835978835975  30.2408026755853 0.876190476190476  C 30.4370122630992 0.973544973544971  30.6270903010033 1.09219576719577  30.8110367892977 1.23214285714286  C 30.994983277592 1.37208994708994  31.1727982162765 1.53333333333333  31.3444816053512 1.71587301587301  C 31.4180602006689 1.78888888888889  31.513099219621 1.90145502645502  31.6295986622074 2.05357142857143  C 31.7460981047938 2.20568783068783  31.9239130434783 2.56164021164021  32.1630434782609 3.12142857142857  C 32.4021739130435 3.68121693121693  32.5646599777035 4.29576719576719  32.6505016722408 4.96507936507937  C 32.7486064659978 5.74391534391534  32.8252508361204 6.5744708994709  32.8804347826087 7.45674603174603  C 32.935618729097 8.33902116402116  32.9693422519509 9.02962962962963  32.9816053511706 9.52857142857143  L 32.9816053511706 10.2587301587302  L 32.9816053511706 12.7412698412698  C 32.9938684503902 14.5058201058201  32.8835005574136 16.2703703703704  32.6505016722408 18.0349206349206  C 32.5646599777035 18.7042328042328  32.4113712374582 19.3096560846561  32.190635451505 19.8511904761905  C 31.9698996655518 20.3927248677249  31.7736900780379 20.7669312169312  31.6020066889632 20.9738095238095  L 31.3444816053512 21.284126984127  C 31.1727982162765 21.4666666666667  30.994983277592 21.6279100529101  30.8110367892977 21.7678571428571  C 30.6270903010033 21.9078042328042  30.4370122630992 22.0234126984127  30.2408026755853 22.1146825396825  C 30.0445930880714 22.2059523809524  29.8729096989967 22.2820105820106  29.7257525083612 22.3428571428571  C 29.5785953177258 22.4037037037037  29.4038461538462 22.452380952381  29.2015050167224 22.4888888888889  C 28.9991638795987 22.5253968253968  28.8520066889632 22.5527777777778  28.7600334448161 22.5710317460317  C 28.6680602006689 22.5892857142857  28.5270345596433 22.6075396825397  28.3369565217391 22.6257936507937  C 28.146878483835 22.6440476190476  28.0457079152731 22.6531746031746  28.0334448160535 22.6531746031746  C 24.9554069119287 22.8843915343915  21.1109253065775 23  16.5 23  C 13.9615384615385 22.9756613756614  11.7572463768116 22.9361111111111  9.8871237458194 22.8813492063492  C 8.0170011148272 22.8265873015873  6.7876254180602 22.7809523809524  6.19899665551839 22.7444444444444  L 5.29765886287625 22.6714285714286  L 4.63545150501672 22.5984126984127  C 4.19397993311037 22.5375661375661  3.8598104793757 22.4767195767196  3.63294314381271 22.415873015873  C 3.40607580824972 22.3550264550265  3.09336677814939 22.2272486772487  2.69481605351171 22.0325396825397  C 2.29626532887402 21.8378306878307  1.94983277591973 21.5883597883598  1.65551839464883 21.284126984127  C 1.5819397993311 21.2111111111111  1.48690078037904 21.098544973545  1.37040133779264 20.9464285714286  C 1.25390189520624 20.7943121693122  1.07608695652174 20.4383597883598  0.83695652173913 19.8785714285714  C 0.597826086956522 19.3187830687831  0.435340022296544 18.7042328042328  0.349498327759197 18.0349206349206  C 0.25139353400223 17.2560846560847  0.174749163879599 16.4255291005291  0.119565217391304 15.543253968254  C 0.06438127090301 14.6609788359788  0.0306577480490524 13.9703703703704  0.0183946488294314 13.4714285714286  L 0.0183946488294314 12.7412698412698  L 0.0183946488294314 10.2587301587302  C 0.00613154960981048 8.49417989417989  0.116499442586399 6.72962962962963  0.349498327759197 4.96507936507937  C 0.435340022296544 4.29576719576719  0.588628762541806 3.69034391534391  0.809364548494983 3.14880952380952  C 1.03010033444816 2.60727513227513  1.2263099219621 2.23306878306878  1.39799331103679 2.02619047619048  L 1.65551839464883 1.71587301587301  C 1.82720178372352 1.53333333333333  2.00501672240803 1.37208994708994  2.18896321070234 1.23214285714286  C 2.37290969899666 1.09219576719577  2.56298773690078 0.973544973544971  2.75919732441472 0.876190476190476  C 2.95540691192865 0.778835978835975  3.12709030100334 0.699735449735448  3.2742474916388 0.638888888888889  C 3.42140468227425 0.578042328042325  3.59615384615385 0.52936507936508  3.79849498327759 0.492857142857144  C 4.00083612040134 0.456349206349207  4.14492753623188 0.428968253968255  4.23076923076923 0.410714285714287  C 4.31661092530658 0.392460317460319  4.45763656633222 0.37420634920635  4.65384615384615 0.35595238095238  C 4.85005574136009 0.337698412698412  4.95429208472687 0.328571428571427  4.96655518394649 0.328571428571427  Z " fill-rule="nonzero" fill="#ffffff" stroke="none" fill-opacity="0.996078431372549" transform="matrix(1 0 0 1 716 1078 )" />
  </g>
</svg>