<?xml version="1.0" encoding="utf-8"?>
<svg version="1.1" xmlns:xlink="http://www.w3.org/1999/xlink" width="15px" height="28px" xmlns="http://www.w3.org/2000/svg">
  <g transform="matrix(1 0 0 1 -492 -1075 )">
    <path d="M 11.0416666666667 0  C 12.7430555555556 0  14.0625 0.0673076923076921  15 0.201923076923076  L 15 4.64423076923077  L 12.2743055555556 4.64423076923077  C 11.2789351851852 4.64423076923077  10.6076388888889 4.84615384615385  10.2604166666667 5.25  C 9.91319444444444 5.65384615384615  9.73958333333333 6.25961538461538  9.73958333333333 7.06730769230769  L 9.73958333333333 10.2475961538462  L 14.8263888888889 10.2475961538462  L 14.1493055555556 15.2283653846154  L 9.73958333333333 15.2283653846154  L 9.73958333333333 28  L 4.42708333333333 28  L 4.42708333333333 15.2283653846154  L 0 15.2283653846154  L 0 10.2475961538462  L 4.42708333333333 10.2475961538462  L 4.42708333333333 6.57932692307692  C 4.42708333333333 4.49278846153846  5.02893518518519 2.87459935897436  6.23263888888889 1.72475961538462  C 7.43634259259259 0.574919871794874  9.03935185185185 0  11.0416666666667 0  Z " fill-rule="nonzero" fill="#ffffff" stroke="none" fill-opacity="0.996078431372549" transform="matrix(1 0 0 1 492 1075 )" />
  </g>
</svg>