<?xml version="1.0" encoding="utf-8"?>
<svg version="1.1" xmlns:xlink="http://www.w3.org/1999/xlink" width="28px" height="22px" xmlns="http://www.w3.org/2000/svg">
  <g transform="matrix(1 0 0 1 -642 -1078 )">
    <path d="M 24.6954314720812 3.471875  C 25.7969543147208 3.35729166666667  26.8984771573604 3.07083333333333  28 2.6125  C 27.2064297800338 3.73541666666666  26.2470389170897 4.6921875  25.1218274111675 5.4828125  C 25.1336717428088 5.64322916666667  25.1395939086294 5.88385416666666  25.1395939086294 6.2046875  C 25.1395939086294 7.69427083333333  24.914551607445 9.18098958333333  24.4644670050761 10.66484375  C 24.0143824027073 12.1486979166667  23.330372250423 13.5723958333333  22.4124365482234 14.9359375  C 21.4945008460237 16.2994791666667  20.4018612521151 17.50546875  19.1345177664975 18.55390625  C 17.8671742808799 19.60234375  16.339255499154 20.4388020833333  14.5507614213198 21.06328125  C 12.7622673434856 21.6877604166667  10.8494077834179 22  8.81218274111675 22  C 5.60236886632826 22  2.66497461928934 21.1692708333333  0 19.5078125  C 0.414551607445009 19.5536458333333  0.876480541455161 19.5765625  1.38578680203046 19.5765625  C 4.0507614213198 19.5765625  6.42554991539763 18.7859375  8.51015228426396 17.2046875  C 7.26649746192893 17.1817708333333  6.15313028764805 16.8122395833333  5.17005076142132 16.09609375  C 4.18697123519459 15.3799479166667  3.51184433164129 14.4661458333333  3.14467005076142 13.3546875  C 3.53553299492386 13.4119791666667  3.89678510998308 13.440625  4.22842639593909 13.440625  C 4.73773265651438 13.440625  5.24111675126904 13.3776041666667  5.73857868020305 13.2515625  C 4.41201353637902 12.9880208333333  3.31345177664975 12.34921875  2.44289340101523 11.33515625  C 1.57233502538071 10.32109375  1.13705583756345 9.14375  1.13705583756345 7.803125  L 1.13705583756345 7.734375  C 1.9424703891709 8.16979166666667  2.80710659898477 8.4046875  3.73096446700508 8.4390625  C 2.9492385786802 7.93489583333333  2.32741116751269 7.27604166666667  1.86548223350254 6.4625  C 1.40355329949239 5.64895833333333  1.17258883248731 4.76666666666666  1.17258883248731 3.815625  C 1.17258883248731 2.80729166666667  1.4331641285956 1.8734375  1.95431472081218 1.0140625  C 3.38747884940778 2.72135416666667  5.13155668358714 4.08776041666667  7.18654822335025 5.11328125  C 9.24153976311337 6.13880208333333  11.4416243654822 6.70885416666667  13.7868020304569 6.8234375  C 13.6920473773266 6.38802083333333  13.6446700507614 5.9640625  13.6446700507614 5.5515625  C 13.6446700507614 4.01614583333333  14.2043147208122 2.70703125  15.3236040609137 1.62421875  C 16.4428934010152 0.541406250000001  17.7961082910322 0  19.3832487309645 0  C 21.0414551607445 0  22.4390862944162 0.584375000000001  23.5761421319797 1.753125  C 24.8671742808799 1.5125  26.0812182741117 1.065625  27.2182741116751 0.412500000000001  C 26.7800338409475 1.73020833333333  25.9390862944162 2.75  24.6954314720812 3.471875  Z " fill-rule="nonzero" fill="#ffffff" stroke="none" fill-opacity="0.996078431372549" transform="matrix(1 0 0 1 642 1078 )" />
  </g>
</svg>