<?xml version="1.0" encoding="utf-8"?>
<svg version="1.1" xmlns:xlink="http://www.w3.org/1999/xlink" width="28px" height="28px" xmlns="http://www.w3.org/2000/svg">
  <g transform="matrix(1 0 0 1 -563 -1075 )">
    <path d="M 17.2994791666667 17.2994791666667  C 18.2109375 16.3880208333333  18.6666666666667 15.2881944444444  18.6666666666667 14  C 18.6666666666667 12.7118055555556  18.2109375 11.6119791666667  17.2994791666667 10.7005208333333  C 16.3880208333333 9.7890625  15.2881944444444 9.33333333333333  14 9.33333333333333  C 12.7118055555556 9.33333333333333  11.6119791666667 9.7890625  10.7005208333333 10.7005208333333  C 9.7890625 11.6119791666667  9.33333333333333 12.7118055555556  9.33333333333333 14  C 9.33333333333333 15.2881944444444  9.7890625 16.3880208333333  10.7005208333333 17.2994791666667  C 11.6119791666667 18.2109375  12.7118055555556 18.6666666666667  14 18.6666666666667  C 15.2881944444444 18.6666666666667  16.3880208333333 18.2109375  17.2994791666667 17.2994791666667  Z M 19.0859375 8.9140625  C 20.4835069444444 10.3116319444444  21.1822916666667 12.0069444444444  21.1822916666667 14  C 21.1822916666667 15.9930555555556  20.4835069444444 17.6883680555556  19.0859375 19.0859375  C 17.6883680555556 20.4835069444444  15.9930555555556 21.1822916666667  14 21.1822916666667  C 12.0069444444444 21.1822916666667  10.3116319444444 20.4835069444444  8.9140625 19.0859375  C 7.51649305555556 17.6883680555556  6.81770833333333 15.9930555555556  6.81770833333333 14  C 6.81770833333333 12.0069444444444  7.51649305555556 10.3116319444444  8.9140625 8.9140625  C 10.3116319444444 7.51649305555555  12.0069444444444 6.81770833333333  14 6.81770833333333  C 15.9930555555556 6.81770833333333  17.6883680555556 7.51649305555555  19.0859375 8.9140625  Z M 22.6588541666667 5.34114583333333  C 22.9869791666667 5.66927083333333  23.1510416666667 6.06423611111111  23.1510416666667 6.52604166666667  C 23.1510416666667 6.98784722222222  22.9869791666667 7.3828125  22.6588541666667 7.7109375  C 22.3307291666667 8.0390625  21.9357638888889 8.203125  21.4739583333333 8.203125  C 21.0121527777778 8.203125  20.6171875 8.0390625  20.2890625 7.7109375  C 19.9609375 7.3828125  19.796875 6.98784722222222  19.796875 6.52604166666667  C 19.796875 6.06423611111111  19.9609375 5.66927083333333  20.2890625 5.34114583333333  C 20.6171875 5.01302083333333  21.0121527777778 4.84895833333333  21.4739583333333 4.84895833333333  C 21.9357638888889 4.84895833333333  22.3307291666667 5.01302083333333  22.6588541666667 5.34114583333333  Z M 15.39453125 2.50651041666667  C 14.5499131944444 2.51258680555555  14.0850694444444 2.515625  14 2.515625  C 13.9149305555556 2.515625  13.4500868055556 2.51258680555555  12.60546875 2.50651041666667  C 11.7608506944444 2.50043402777778  11.1197916666667 2.50043402777778  10.6822916666667 2.50651041666667  C 10.2447916666667 2.51258680555555  9.65842013888889 2.53081597222222  8.92317708333333 2.56119791666667  C 8.18793402777778 2.59157986111111  7.56206597222222 2.65234375  7.04557291666667 2.74348958333333  C 6.52907986111111 2.83463541666667  6.09461805555556 2.94704861111111  5.7421875 3.08072916666667  C 5.13454861111111 3.32378472222222  4.59982638888889 3.67621527777778  4.13802083333333 4.13802083333333  C 3.67621527777778 4.59982638888889  3.32378472222222 5.13454861111111  3.08072916666667 5.7421875  C 2.94704861111111 6.09461805555555  2.83463541666667 6.52907986111111  2.74348958333333 7.04557291666667  C 2.65234375 7.56206597222222  2.59157986111111 8.18793402777778  2.56119791666667 8.92317708333333  C 2.53081597222222 9.65842013888889  2.51258680555556 10.2447916666667  2.50651041666667 10.6822916666667  C 2.50043402777778 11.1197916666667  2.50043402777778 11.7608506944444  2.50651041666667 12.60546875  C 2.51258680555556 13.4500868055556  2.515625 13.9149305555556  2.515625 14  C 2.515625 14.0850694444444  2.51258680555556 14.5499131944444  2.50651041666667 15.39453125  C 2.50043402777778 16.2391493055556  2.50043402777778 16.8802083333333  2.50651041666667 17.3177083333333  C 2.51258680555556 17.7552083333333  2.53081597222222 18.3415798611111  2.56119791666667 19.0768229166667  C 2.59157986111111 19.8120659722222  2.65234375 20.4379340277778  2.74348958333333 20.9544270833333  C 2.83463541666667 21.4709201388889  2.94704861111111 21.9053819444444  3.08072916666667 22.2578125  C 3.32378472222222 22.8654513888889  3.67621527777778 23.4001736111111  4.13802083333333 23.8619791666667  C 4.59982638888889 24.3237847222222  5.13454861111111 24.6762152777778  5.7421875 24.9192708333333  C 6.09461805555556 25.0529513888889  6.52907986111111 25.1653645833333  7.04557291666667 25.2565104166667  C 7.56206597222222 25.34765625  8.18793402777778 25.4084201388889  8.92317708333333 25.4388020833333  C 9.65842013888889 25.4691840277778  10.2447916666667 25.4874131944444  10.6822916666667 25.4934895833333  C 11.1197916666667 25.4995659722222  11.7608506944444 25.4995659722222  12.60546875 25.4934895833333  C 13.4500868055556 25.4874131944444  13.9149305555556 25.484375  14 25.484375  C 14.0850694444444 25.484375  14.5499131944444 25.4874131944444  15.39453125 25.4934895833333  C 16.2391493055556 25.4995659722222  16.8802083333333 25.4995659722222  17.3177083333333 25.4934895833333  C 17.7552083333333 25.4874131944444  18.3415798611111 25.4691840277778  19.0768229166667 25.4388020833333  C 19.8120659722222 25.4084201388889  20.4379340277778 25.34765625  20.9544270833333 25.2565104166667  C 21.4709201388889 25.1653645833333  21.9053819444444 25.0529513888889  22.2578125 24.9192708333333  C 22.8654513888889 24.6762152777778  23.4001736111111 24.3237847222222  23.8619791666667 23.8619791666667  C 24.3237847222222 23.4001736111111  24.6762152777778 22.8654513888889  24.9192708333333 22.2578125  C 25.0529513888889 21.9053819444444  25.1653645833333 21.4709201388889  25.2565104166667 20.9544270833333  C 25.34765625 20.4379340277778  25.4084201388889 19.8120659722222  25.4388020833333 19.0768229166667  C 25.4691840277778 18.3415798611111  25.4874131944444 17.7552083333333  25.4934895833333 17.3177083333333  C 25.4995659722222 16.8802083333333  25.4995659722222 16.2391493055556  25.4934895833333 15.39453125  C 25.4874131944444 14.5499131944444  25.484375 14.0850694444444  25.484375 14  C 25.484375 13.9149305555556  25.4874131944444 13.4500868055556  25.4934895833333 12.60546875  C 25.4995659722222 11.7608506944444  25.4995659722222 11.1197916666667  25.4934895833333 10.6822916666667  C 25.4874131944444 10.2447916666667  25.4691840277778 9.65842013888889  25.4388020833333 8.92317708333333  C 25.4084201388889 8.18793402777778  25.34765625 7.56206597222222  25.2565104166667 7.04557291666667  C 25.1653645833333 6.52907986111111  25.0529513888889 6.09461805555555  24.9192708333333 5.7421875  C 24.6762152777778 5.13454861111111  24.3237847222222 4.59982638888889  23.8619791666667 4.13802083333333  C 23.4001736111111 3.67621527777778  22.8654513888889 3.32378472222222  22.2578125 3.08072916666667  C 21.9053819444444 2.94704861111111  21.4709201388889 2.83463541666667  20.9544270833333 2.74348958333333  C 20.4379340277778 2.65234375  19.8120659722222 2.59157986111111  19.0768229166667 2.56119791666667  C 18.3415798611111 2.53081597222222  17.7552083333333 2.51258680555555  17.3177083333333 2.50651041666667  C 16.8802083333333 2.50043402777778  16.2391493055556 2.50043402777778  15.39453125 2.50651041666667  Z M 27.9088541666667 8.22135416666667  C 27.9696180555556 9.29079861111111  28 11.2170138888889  28 14  C 28 16.7829861111111  27.9696180555556 18.7092013888889  27.9088541666667 19.7786458333333  C 27.7873263888889 22.3064236111111  27.0338541666667 24.2630208333333  25.6484375 25.6484375  C 24.2630208333333 27.0338541666667  22.3064236111111 27.7873263888889  19.7786458333333 27.9088541666667  C 18.7092013888889 27.9696180555556  16.7829861111111 28  14 28  C 11.2170138888889 28  9.29079861111111 27.9696180555556  8.22135416666667 27.9088541666667  C 5.69357638888889 27.7873263888889  3.73697916666667 27.0338541666667  2.3515625 25.6484375  C 0.966145833333333 24.2630208333333  0.212673611111111 22.3064236111111  0.0911458333333333 19.7786458333333  C 0.0303819444444444 18.7092013888889  0 16.7829861111111  0 14  C 0 11.2170138888889  0.0303819444444444 9.29079861111111  0.0911458333333333 8.22135416666667  C 0.212673611111111 5.69357638888889  0.966145833333333 3.73697916666667  2.3515625 2.3515625  C 3.73697916666667 0.966145833333334  5.69357638888889 0.212673611111109  8.22135416666667 0.0911458333333344  C 9.29079861111111 0.0303819444444406  11.2170138888889 0  14 0  C 16.7829861111111 0  18.7092013888889 0.0303819444444406  19.7786458333333 0.0911458333333344  C 22.3064236111111 0.212673611111109  24.2630208333333 0.966145833333334  25.6484375 2.3515625  C 27.0338541666667 3.73697916666667  27.7873263888889 5.69357638888889  27.9088541666667 8.22135416666667  Z " fill-rule="nonzero" fill="#ffffff" stroke="none" fill-opacity="0.996078431372549" transform="matrix(1 0 0 1 563 1075 )" />
  </g>
</svg>