<?xml version="1.0" encoding="utf-8"?>
<svg version="1.1" xmlns:xlink="http://www.w3.org/1999/xlink" width="15px" height="12px" xmlns="http://www.w3.org/2000/svg">
  <g transform="matrix(1 0 0 1 -44 -1153 )">
    <path d="M 14.1629464285714 4.61079545454546  C 14.4810267857143 4.38920454545455  14.7600446428571 4.14204545454546  15 3.86931818181818  L 15 10.6363636363636  C 15 11.0113636363636  14.8688616071429 11.3323863636364  14.6065848214286 11.5994318181818  C 14.3443080357143 11.8664772727273  14.0290178571429 12  13.6607142857143 12  L 1.33928571428571 12  C 0.970982142857143 12  0.655691964285714 11.8664772727273  0.393415178571429 11.5994318181818  C 0.131138392857143 11.3323863636364  0 11.0113636363636  0 10.6363636363636  L 0 3.86931818181818  C 0.245535714285714 4.14772727272727  0.52734375 4.39488636363636  0.845424107142857 4.61079545454546  C 2.86551339285714 6.00852272727273  4.25223214285714 6.98863636363636  5.00558035714286 7.55113636363636  C 5.32366071428571 7.78977272727273  5.58175223214286 7.97585227272727  5.77985491071429 8.109375  C 5.97795758928571 8.24289772727273  6.24162946428571 8.37926136363636  6.57087053571429 8.51846590909091  C 6.90011160714286 8.65767045454545  7.20703125 8.72727272727273  7.49162946428571 8.72727272727273  L 7.5 8.72727272727273  L 7.50837053571429 8.72727272727273  C 7.79296875 8.72727272727273  8.09988839285714 8.65767045454545  8.42912946428572 8.51846590909091  C 8.75837053571429 8.37926136363636  9.02204241071429 8.24289772727273  9.22014508928572 8.109375  C 9.41824776785714 7.97585227272727  9.67633928571428 7.78977272727273  9.99441964285714 7.55113636363636  C 10.9430803571429 6.85227272727273  12.3325892857143 5.87215909090909  14.1629464285714 4.61079545454546  Z M 14.6023995535714 0.400568181818181  C 14.8674665178571 0.667613636363635  15 0.988636363636364  15 1.36363636363636  C 15 1.8125  14.86328125 2.24147727272727  14.58984375 2.65056818181818  C 14.31640625 3.05965909090909  13.9760044642857 3.40909090909091  13.5686383928571 3.69886363636364  C 11.4704241071429 5.18181818181818  10.1646205357143 6.10511363636364  9.65122767857143 6.46875  C 9.59542410714286 6.50852272727273  9.47684151785714 6.59517045454545  9.29547991071428 6.72869318181818  C 9.11411830357143 6.86221590909091  8.96344866071429 6.97017045454545  8.84347098214286 7.05255681818182  C 8.72349330357143 7.13494318181818  8.57840401785714 7.22727272727273  8.408203125 7.32954545454546  C 8.23800223214286 7.43181818181818  8.07756696428572 7.50852272727273  7.92689732142857 7.55965909090909  C 7.77622767857143 7.61079545454546  7.63671875 7.63636363636364  7.50837053571429 7.63636363636364  L 7.5 7.63636363636364  L 7.49162946428571 7.63636363636364  C 7.36328125 7.63636363636364  7.22377232142857 7.61079545454546  7.07310267857143 7.55965909090909  C 6.92243303571429 7.50852272727273  6.76199776785714 7.43181818181818  6.591796875 7.32954545454546  C 6.42159598214286 7.22727272727273  6.27650669642857 7.13494318181818  6.15652901785714 7.05255681818182  C 6.03655133928571 6.97017045454545  5.88588169642857 6.86221590909091  5.70452008928571 6.72869318181818  C 5.52315848214286 6.59517045454545  5.40457589285714 6.50852272727273  5.34877232142857 6.46875  C 4.84095982142857 6.10511363636364  4.10993303571429 5.58664772727273  3.15569196428571 4.91335227272727  C 2.20145089285714 4.24005681818182  1.62946428571429 3.83522727272727  1.43973214285714 3.69886363636364  C 1.09375 3.46022727272727  0.767299107142857 3.13210227272727  0.460379464285714 2.71448863636364  C 0.153459821428571 2.296875  0 1.90909090909091  0 1.55113636363636  C 0 1.10795454545454  0.115792410714286 0.738636363636362  0.347377232142857 0.443181818181819  C 0.578962053571429 0.147727272727272  0.909598214285715 0  1.33928571428571 0  L 13.6607142857143 0  C 14.0234375 0  14.3373325892857 0.133522727272726  14.6023995535714 0.400568181818181  Z " fill-rule="nonzero" fill="#ffffff" stroke="none" fill-opacity="0.996078431372549" transform="matrix(1 0 0 1 44 1153 )" />
  </g>
</svg>