<?xml version="1.0" encoding="utf-8"?>
<svg version="1.1" xmlns:xlink="http://www.w3.org/1999/xlink" width="11px" height="15px" xmlns="http://www.w3.org/2000/svg">
  <g transform="matrix(1 0 0 1 -44 -1084 )">
    <path d="M 49.5 1098.02213928636  C 47.5 1094.64823956083  44.5 1092.62389972552  44.5 1089.25  C 44.5 1087.48571428571  45.5 1084.5  49.5 1084.5  C 53.5 1084.5  54.5 1087.48571428571  54.5 1089.25  C 54.5 1092.62389972552  51.5 1094.64823956083  49.5 1098.02213928636  Z " fill-rule="nonzero" fill="#ffffff" stroke="none" fill-opacity="0.996078431372549" />
    <path d="M 49.5 1099  C 47.3 1095.25  44 1093  44 1089.25  C 44 1087.3  45.1 1084  49.5 1084  C 53.9 1084  55 1087.3  55 1089.25  C 55 1093  51.7 1095.25  49.5 1099  Z M 49.5 1097.04427857271  C 51.3 1094.04647912167  54 1092.24779945104  54 1089.25  C 54 1087.67142857143  53.1 1085  49.5 1085  C 45.9 1085  45 1087.67142857143  45 1089.25  C 45 1092.24779945104  47.7 1094.04647912167  49.5 1097.04427857271  Z " fill-rule="nonzero" fill="#ffffff" stroke="none" />
  </g>
</svg>